<?xml version="1.0" encoding="UTF-8" standalone="no"?>
<!-- Created with Inkscape (http://www.inkscape.org/) -->

<svg
   xmlns:dc="http://purl.org/dc/elements/1.1/"
   xmlns:cc="http://creativecommons.org/ns#"
   xmlns:rdf="http://www.w3.org/1999/02/22-rdf-syntax-ns#"
   xmlns:svg="http://www.w3.org/2000/svg"
   xmlns="http://www.w3.org/2000/svg"
   xmlns:sodipodi="http://sodipodi.sourceforge.net/DTD/sodipodi-0.dtd"
   xmlns:inkscape="http://www.inkscape.org/namespaces/inkscape"
   width="638mm"
   height="251mm"
   viewBox="0 0 638 251"
   version="1.1"
   id="svg8"
   inkscape:version="0.92.3 (2405546, 2018-03-11)"
   sodipodi:docname="edublock-logo_Final_edublocks_white.svg">
  <defs
     id="defs2" />
  <sodipodi:namedview
     id="base"
     pagecolor="#ffffff"
     bordercolor="#666666"
     borderopacity="1.0"
     inkscape:pageopacity="0.0"
     inkscape:pageshadow="2"
     inkscape:zoom="0.175"
     inkscape:cx="-5.2096475"
     inkscape:cy="118.18632"
     inkscape:document-units="mm"
     inkscape:current-layer="layer1"
     showgrid="false"
     height="211mm"
     inkscape:window-width="1920"
     inkscape:window-height="1012"
     inkscape:window-x="1920"
     inkscape:window-y="0"
     inkscape:window-maximized="1" />
  <metadata
     id="metadata5">
    <rdf:RDF>
      <cc:Work
         rdf:about="">
        <dc:format>image/svg+xml</dc:format>
        <dc:type
           rdf:resource="http://purl.org/dc/dcmitype/StillImage" />
        <dc:title></dc:title>
      </cc:Work>
    </rdf:RDF>
  </metadata>
  <g
     inkscape:label="Layer 1"
     inkscape:groupmode="layer"
     id="layer1"
     transform="translate(0,-46)">
    <path
       style="fill:#ffffff;stroke-width:0.86655492"
       d="m 117.57956,294.73596 c -7.77588,-1.91282 -14.1435,-5.68754 -20.614651,-12.22037 -3.36446,-3.39652 -7.12595,-8.19624 -8.35887,-10.66605 l -2.24168,-4.49057 -23.90957,-0.39787 c -25.66927,-0.42715 -28.19149,-0.80718 -37.67218,-5.6761 -5.53754,-2.84387 -15.0628607,-12.51291 -17.8788706,-18.14863 -5.58153,-11.1704 -5.35967,-7.61407 -5.35967,-85.91447 V 86.100046 l 2.26995,-6.29714 c 4.07988,-11.31808 12.5591306,-21.079833 22.8723406,-26.331823 7.38366,-3.76012 13.02439,-4.43252 37.29911,-4.44622 l 22.85879,-0.0129 1.52688,3.27248 c 4.34407,9.310353 14.620501,18.395733 25.036861,22.135053 7.22017,2.59193 18.2123,3.12459 25.38451,1.23009 11.79449,-3.11545 22.53147,-11.31916 28.29594,-21.619823 l 2.80807,-5.0178 h 42.53119 42.53119 v 32.288443 32.288454 h 10.75615 10.75615 v 15.34429 c 0,8.43936 0.29521,15.21339 0.65602,15.05339 0.36081,-0.15998 2.89274,-1.42432 5.62651,-2.80963 9.63255,-4.88121 21.86275,-3.85738 31.27903,2.61847 16.64771,11.44913 18.67219,42.79094 3.74205,57.93222 -10.11245,10.25546 -27.92742,12.46848 -39.00428,4.84522 l -3.15982,-2.17464 v 2.59169 2.59168 H 265.2848 254.9589 v -35.34276 -35.34277 h -11.14689 -11.14688 l -0.25463,23.54342 -0.25463,23.54343 -2.38591,2.41823 c -1.89286,1.91851 -3.17802,2.41824 -6.21901,2.41824 -3.04098,0 -4.32615,-0.49973 -6.219,-2.41824 l -2.38592,-2.41823 -0.25462,-23.54343 -0.25463,-23.54342 H 203.28989 192.143 v 24.28896 c 0,26.98072 0.58981,31.90564 4.64295,38.76909 6.68522,11.3205 24.95405,13.29669 34.29431,3.70972 l 2.36635,-2.42887 v 3.60965 3.60964 h 10.75615 10.75614 v 28.36148 28.36147 h -42.54388 -42.54389 l -2.81008,5.34682 c -3.56583,6.78479 -11.08578,14.43826 -17.69828,18.01253 -9.35167,5.05488 -21.6826,6.68414 -31.78321,4.19945 z M 76.931039,211.3088 c 6.88507,-1.32419 14.45065,-5.27073 19.05446,-9.93965 2.24669,-2.27845 4.084881,-4.4755 4.084881,-4.88232 0,-0.40683 -3.358811,-3.369 -7.464021,-6.58262 -6.27737,-4.91402 -7.61343,-5.63571 -8.40384,-4.53948 -0.51691,0.71691 -2.43962,2.33565 -4.27271,3.59721 -2.74108,1.88645 -4.31227,2.29373 -8.84872,2.29373 -3.18688,0 -6.55571,-0.54533 -7.97862,-1.29155 -3.02678,-1.58736 -6.05668,-5.36566 -6.05668,-7.55274 0,-1.54667 1.11288,-1.62764 22.37278,-1.62764 h 22.372791 v -6.36161 c 0,-16.52461 -7.790101,-29.74381 -20.478301,-34.75013 -7.04995,-2.78165 -19.20858,-2.73956 -26.4185,0.0915 -7.23974,2.84272 -15.75651,11.50728 -18.44734,18.76743 -4.24788,11.46122 -4.2511,22.35675 -0.01,32.39179 6.32104,14.95493 23.5731,23.64037 40.49338,20.38612 z m -19.88525,-45.83996 c 0,-1.41606 2.84437,-5.71201 4.83155,-7.29722 5.41896,-4.32283 16.68074,-0.1196 16.68074,6.22574 0,1.4037 -1.02248,1.55115 -10.75615,1.55115 -5.91588,0 -10.75614,-0.21585 -10.75614,-0.47967 z m 94.765931,44.14989 c 2.41106,-0.92907 5.11473,-2.36013 6.00816,-3.18011 1.55995,-1.4317 1.62443,-1.38052 1.62443,1.28921 v 2.7801 l 10.54103,-0.24502 10.54102,-0.24503 V 161.5852 113.15253 l -11.40151,-0.24349 -11.40152,-0.2435 v 15.36807 15.36807 l -2.86697,-1.79695 c -4.46106,-2.79607 -13.13494,-4.73574 -18.38119,-4.11043 -14.62984,1.74377 -25.6255,11.97755 -28.7514,26.75923 -1.4506,6.85958 -0.56224,20.32658 1.73785,26.34473 2.22073,5.8105 8.85088,13.62568 14.31427,16.87272 7.91289,4.70285 19.16767,5.56505 28.03583,2.14775 z m -15.64203,-20.32951 c -4.6306,-3.16469 -6.41234,-7.10415 -6.41234,-14.17777 0,-10.93973 4.33601,-16.2591 13.73126,-16.84534 4.36091,-0.27211 5.67325,0.004 8.13642,1.71549 8.83798,6.13881 8.88926,23.24481 0.0879,29.31059 -3.9821,2.7444 -11.52535,2.74297 -15.54322,-0.003 z m 163.78187,-0.0143 c 4.27967,-3.31043 6.16795,-7.80924 6.13882,-14.62566 -0.0326,-7.62452 -2.68735,-12.70904 -8.07409,-15.46383 -4.894,-2.5028 -9.10852,-2.48877 -13.83507,0.046 -5.25414,2.81775 -7.71002,7.73705 -7.71002,15.44371 0,4.40786 0.48441,6.7631 1.98149,9.63415 4.03813,7.74422 14.71781,10.21091 21.49887,4.9656 z m 95.66209,20.83474 c -10.99875,-2.70987 -18.56626,-8.74212 -23.39351,-18.64752 -3.18909,-6.54393 -3.24607,-6.83816 -3.24607,-16.76007 0,-9.59466 0.13734,-10.38214 2.7491,-15.7624 6.29375,-12.96525 19.31422,-20.9163 34.25203,-20.9163 11.18351,0 21.01209,4.27999 28.39166,12.36351 15.72091,17.2206 9.97008,46.90989 -11.01642,56.87351 -8.42445,3.99963 -18.75887,5.06121 -27.73679,2.84923 z m 16.4206,-19.62159 c 10.91331,-5.02734 13.14988,-19.6875 4.36302,-28.59862 -2.8317,-2.87174 -4.44412,-3.76025 -7.73101,-4.26012 -10.64788,-1.61934 -18.54486,5.54043 -18.59125,16.8557 -0.0323,7.86445 2.96507,13.18409 9.01627,16.00211 4.36899,2.03462 8.52759,2.03491 12.94297,8.7e-4 z m 64.93153,19.93586 c -10.28076,-2.18269 -20.42915,-10.03357 -24.64093,-19.06245 -10.32224,-22.12801 1.95176,-47.59362 25.31256,-52.51744 8.65896,-1.82507 21.48193,0.20705 26.64363,4.22235 l 1.93075,1.50194 -2.76798,8.72661 c -1.5224,4.79963 -2.79248,8.80628 -2.82242,8.90366 -0.0299,0.0974 -2.05188,-0.82546 -4.49323,-2.05075 -5.25689,-2.6384 -13.08179,-3.03061 -17.21524,-0.8629 -3.52455,1.8484 -6.85647,6.03314 -7.93272,9.96314 -4.41678,16.12821 10.79036,28.01595 25.86302,20.2177 1.93743,-1.00238 3.63632,-1.69694 3.7753,-1.54346 0.13898,0.15347 1.42679,4.14268 2.8618,8.8649 l 2.60912,8.58587 -5.56147,2.63933 c -4.4599,2.11656 -6.96071,2.69819 -12.62573,2.93647 -3.88534,0.16342 -8.80675,-0.0728 -10.93646,-0.52497 z m 122.21069,-0.43979 c -5.59894,-1.59265 -10.75118,-4.5369 -13.99206,-7.99578 l -2.35457,-2.51294 5.90293,-5.94054 5.90294,-5.94053 3.39822,2.28063 c 7.63499,5.12406 18.76021,4.95783 18.16166,-0.27134 -0.29701,-2.59488 -2.43011,-3.87681 -13.23399,-7.95323 -12.34746,-4.65883 -17.51899,-11.06713 -17.55496,-21.75317 -0.0351,-10.42755 5.04293,-16.94853 15.79023,-20.27714 11.49672,-3.56073 24.34803,-0.77355 31.69415,6.87378 l 3.18001,3.31041 -6.85526,5.457 -6.85526,5.45698 -3.22673,-2.16555 c -5.69297,-3.8207 -12.41104,-4.01592 -13.54469,-0.39358 -0.88568,2.83 1.67573,4.8629 9.36986,7.43652 16.80161,5.62 22.08327,11.08293 22.0394,22.79584 -0.0494,13.19639 -10.01358,21.77865 -26.2261,22.58891 -4.53478,0.22663 -8.49186,-0.11335 -11.59578,-0.99627 z M 337.56612,161.5852 v -47.99634 h 10.75614 10.75615 v 47.99634 47.99635 h -10.75615 -10.75614 z m 177.26129,0 v -47.99634 h 10.75615 10.75615 v 26.61616 c 0,14.63888 0.33106,26.61615 0.73568,26.61615 0.40462,0 4.72022,-6.08681 9.59022,-13.52624 l 8.85455,-13.52625 h 11.92207 c 6.55713,0 11.92207,0.1703 11.92207,0.37846 0,0.20815 -4.21109,6.43031 -9.35799,13.82701 -5.14689,7.3967 -10.00175,14.44496 -10.78857,15.66277 -1.41958,2.19721 -1.34352,2.35083 9.89611,19.9886 6.22968,9.77591 11.51319,18.26525 11.74112,18.8652 0.31982,0.8418 -2.43063,1.09083 -12.04777,1.09083 H 556.34499 L 547.08134,193.849 c -5.09501,-8.6529 -9.5962,-15.94097 -10.00264,-16.19573 -0.40644,-0.25474 -0.73899,6.8249 -0.73899,15.73255 v 16.19573 h -10.75615 -10.75615 z"
       id="path1531"
       inkscape:connector-curvature="0" />
  </g>
</svg>
